# xmcd
#
# Track frame offsets:
#	150
#	18855
#	34703
#	51375
#	68148
#	79873
#	98553
#	113875
#	124893
#	146715
#
# Disc length: 2225 seconds
#
# Revision: 2
# Processed by: cddbd v1.5.2PL0 Copyright (c) Steve Scherf et al.
# Submitted via: EZCDAudioConverter 4.0.5.1
#
DISCID=8408af0a
DTITLE=Brewers Droop - The Booze Brothers
DYEAR=1900
DGENRE=blues
TTITLE0=Where are you tonight
TTITLE1=Roller Coaster
TTITLE2=You make me feel so good
TTITLE3=My old lady
TTITLE4=Sugar baby
TTITLE5=Rock steady woman
TTITLE6=Louise
TTITLE7=What's the time
TTITLE8=Midnight special
TTITLE9=Dreaming
EXTD=
EXTT0=
EXTT1=
EXTT2=
EXTT3=
EXTT4=
EXTT5=
EXTT6=
EXTT7=
EXTT8=
EXTT9=
PLAYORDER=
